<svg width="423" height="319" viewBox="0 0 423 319" fill="none" xmlns="http://www.w3.org/2000/svg">
<g clip-path="url(#clip0_423_198)">
<path d="M0 193.58C0 193.963 0.306426 194.27 0.688009 194.27H422.312C422.694 194.27 423 193.963 423 193.58C423 193.198 422.694 192.891 422.312 192.891H0.688009C0.306426 192.891 0 193.198 0 193.58Z" fill="#3F3D56"/>
<path d="M269.978 47.2784L272.19 75.6382L304.251 62.2183L286.165 33.374L269.978 47.2784Z" fill="#A0616A"/>
<path d="M269.017 55.9185C282.216 55.9185 292.916 45.1959 292.916 31.969C292.916 18.7421 282.216 8.01953 269.017 8.01953C255.818 8.01953 245.118 18.7421 245.118 31.969C245.118 45.1959 255.818 55.9185 269.017 55.9185Z" fill="#A0616A"/>
<path d="M224.305 255.265L228.352 291.64L200.024 287.708L209.274 254.106L224.305 255.265Z" fill="#A0616A"/>
<path d="M334.728 260.479L338.775 296.855L310.447 292.922L319.697 259.32L334.728 260.479Z" fill="#A0616A"/>
<path d="M267.376 150.692C266.989 150.692 236.073 152.248 215.647 153.278C205.979 153.765 198.619 162.151 199.37 171.822L206.672 265.983L227.485 266.562L227.993 190.667L269.11 192.985L267.376 150.692Z" fill="#2F2E41"/>
<path d="M358.142 150.113C358.142 150.113 363.345 190.088 359.298 194.143C355.251 198.199 228.352 190.957 228.352 190.957C228.352 190.957 256.191 150.671 261.205 149.523C266.22 148.375 346.001 144.319 346.001 144.319L358.142 150.113Z" fill="#2F2E41"/>
<path d="M193.746 99.7833C188.914 93.0103 188.484 85.0214 192.786 81.9402C197.088 78.8589 204.491 81.852 209.324 88.6281C211.292 91.3083 212.591 94.4218 213.112 97.7081L233.226 126.665L221.779 134.607L201.097 106.314C198.161 104.757 195.641 102.517 193.746 99.7833V99.7833Z" fill="#A0616A"/>
<path d="M268.821 65.2382L298.306 53.0719L353.806 138.816C353.806 138.816 315.072 147.506 301.775 149.244C288.478 150.982 273.446 144.03 273.446 144.03L268.821 65.2382Z" fill="#FFC333"/>
<path d="M304.665 79.7219L293.97 46.2885L307.845 56.8376C307.845 56.8376 347.158 82.9083 347.158 93.916C347.158 104.924 359.298 138.526 359.298 138.526C359.298 138.526 372.884 149.823 368.259 160.251C363.634 170.68 374.33 169.231 375.486 176.763C376.642 184.294 359.009 194.433 359.009 194.433C359.009 194.433 354.673 151.851 340.798 151.851C326.923 151.851 304.665 79.7219 304.665 79.7219Z" fill="#3F3D56"/>
<path d="M270.893 64.3833L256.392 70.1627C256.392 70.1627 258.704 110.717 261.017 114.193C263.329 117.669 271.423 136.208 271.423 136.208V142.251C271.423 142.251 255.235 147.216 255.813 150.113C256.392 153.01 293.97 161.12 293.97 161.12C293.97 161.12 286.454 137.947 281.829 130.415C277.204 122.883 270.893 64.3833 270.893 64.3833Z" fill="#3F3D56"/>
<path d="M261.595 70.1627C261.595 70.1627 244.829 67.8453 241.938 87.5432C239.048 107.241 240.884 109.848 240.884 109.848L236.157 121.145L220.547 103.765L205.516 113.614C205.516 113.614 232.688 157.644 243.673 156.486C254.657 155.327 270.845 123.463 270.845 123.463L261.595 70.1627Z" fill="#3F3D56"/>
<path d="M345.33 156.508L336.752 278.149L314.494 277.28C314.494 277.28 309.58 162.279 309.58 160.541C309.58 158.803 311.892 148.954 326.345 148.375C340.799 147.795 345.33 156.508 345.33 156.508Z" fill="#2F2E41"/>
<path d="M313.048 280.466C313.048 280.466 324.611 276.99 326.345 279.308C328.08 281.625 337.908 282.784 337.908 282.784L340.799 311.172C340.799 311.172 332.705 316.965 331.548 318.124C330.392 319.283 299.751 320.441 299.173 313.489C298.595 306.537 307.267 297.847 307.267 297.847L313.048 280.466Z" fill="#2F2E41"/>
<path d="M228.063 272.355C228.063 272.355 231.532 269.459 232.688 277.57C233.844 285.681 237.891 299.006 232.11 300.744C226.329 302.482 168.516 303.061 168.516 297.847V292.633L173.719 288.577L184.127 286.915C184.127 286.915 204.36 268.3 206.672 268.3C208.985 268.3 216.5 275.832 216.5 275.832L228.063 272.355Z" fill="#2F2E41"/>
<path d="M292.525 44.961C292.525 44.961 280.962 31.0566 276.337 32.2153C271.712 33.374 274.603 35.112 274.603 35.112L263.04 22.3663C263.04 22.3663 253.79 18.8903 245.118 29.8979C245.118 29.8979 239.915 20.6283 245.118 15.4142C250.321 10.2 252.056 10.7794 253.212 7.88262C254.368 4.98587 262.462 2.66847 262.462 2.66847C262.462 2.66847 261.998 -1.50101 264.542 0.583727C267.087 2.66847 273.442 2.66847 273.442 2.66847C273.442 2.66847 273.478 0.351078 276.064 2.66847C278.65 4.98587 281.54 3.82717 281.54 3.82717C281.54 3.82717 281.54 7.837 283.564 7.85981C285.587 7.88262 289.056 4.98587 289.634 7.30327C290.212 9.62066 294.259 10.7794 294.837 17.7316C295.415 24.6837 292.525 44.961 292.525 44.961Z" fill="#2F2E41"/>
<path d="M198.295 103.616L132.252 149.284C129.973 150.86 126.839 150.284 125.267 148.001L106.673 120.998C105.1 118.714 105.675 115.574 107.954 113.998L173.997 68.3296C176.277 66.7536 179.41 67.3295 180.983 69.6133L199.576 96.6161C201.149 98.9 200.574 102.04 198.295 103.616Z" fill="white"/>
<path d="M180.861 69.6973L199.455 96.6999C200.985 98.9217 200.428 101.961 198.211 103.494L165.799 125.907C157.251 123.566 149.451 118.309 144.025 110.429C140.471 105.268 138.329 99.5535 137.512 93.7387L174.081 68.4512C176.298 66.9181 179.331 67.4755 180.861 69.6973V69.6973Z" fill="#E6E6E6"/>
<path d="M129.408 150.752C127.628 150.752 125.876 149.906 124.791 148.33L106.197 121.327C105.349 120.095 105.03 118.604 105.301 117.128C105.571 115.652 106.397 114.371 107.626 113.521L173.669 67.8524C176.212 66.0957 179.705 66.7384 181.459 69.2838L200.053 96.2869C200.901 97.5192 201.219 99.01 200.949 100.486C200.679 101.962 199.853 103.243 198.624 104.093L132.58 149.761C131.611 150.431 130.504 150.752 129.408 150.752ZM176.843 68.0199C175.973 68.0199 175.095 68.2751 174.326 68.8063L108.283 114.475C107.307 115.149 106.653 116.165 106.438 117.337C106.223 118.508 106.476 119.692 107.149 120.668L125.743 147.671C127.134 149.691 129.906 150.202 131.923 148.807L197.967 103.139C198.942 102.465 199.597 101.448 199.812 100.277C200.026 99.1056 199.774 97.922 199.101 96.9455L180.507 69.9424C179.646 68.692 178.255 68.0199 176.843 68.0199Z" fill="#3F3D56"/>
<path d="M129.886 137.269C128.212 138.427 127.79 140.733 128.945 142.41C130.1 144.088 132.402 144.511 134.075 143.353L140.875 138.651C142.549 137.494 142.971 135.188 141.816 133.51C140.661 131.833 138.36 131.41 136.686 132.568L129.886 137.269Z" fill="#FFC333"/>
<path d="M134.495 99.5966C131.854 101.423 131.188 105.062 133.011 107.708C134.833 110.355 138.464 111.022 141.105 109.196L151.682 101.882C154.323 100.055 154.989 96.4169 153.167 93.7704C151.344 91.1239 147.713 90.4565 145.072 92.2826L134.495 99.5966Z" fill="#FFC333"/>
<path d="M196.714 107.648H116.473C113.704 107.648 111.452 105.391 111.452 102.616V69.8084C111.452 67.0336 113.704 64.7762 116.473 64.7762H196.714C199.483 64.7762 201.736 67.0336 201.736 69.8084V102.616C201.736 105.391 199.483 107.648 196.714 107.648Z" fill="white"/>
<path d="M201.588 69.8085V102.616C201.588 105.315 199.408 107.5 196.714 107.5H157.334C151.625 100.709 148.185 91.9422 148.185 82.3685C148.185 76.0974 149.66 70.1751 152.283 64.9241H196.714C199.408 64.9241 201.588 67.1091 201.588 69.8085L201.588 69.8085Z" fill="#E6E6E6"/>
<path d="M196.714 108.227H116.474C113.386 108.227 110.874 105.71 110.874 102.616V69.8082C110.874 66.714 113.386 64.1969 116.474 64.1969H196.714C199.802 64.1969 202.314 66.714 202.314 69.8082V102.616C202.314 105.71 199.802 108.227 196.714 108.227ZM116.474 65.3556C114.023 65.3556 112.03 67.3528 112.03 69.8082V102.616C112.03 105.072 114.023 107.069 116.474 107.069H196.714C199.164 107.069 201.158 105.072 201.158 102.616V69.8082C201.158 67.3528 199.164 65.3556 196.714 65.3556H116.474Z" fill="#3F3D56"/>
<path d="M121.336 96.4127C119.302 96.4127 117.648 98.0707 117.648 100.109C117.648 102.146 119.302 103.804 121.336 103.804H129.597C131.631 103.804 133.285 102.146 133.285 100.109C133.285 98.0707 131.631 96.4127 129.597 96.4127H121.336Z" fill="#FFC333"/>
<path d="M146.48 68.0286C143.271 68.0286 140.661 70.6445 140.661 73.8599C140.661 77.0753 143.271 79.691 146.48 79.691H159.331C162.54 79.691 165.15 77.0753 165.15 73.8599C165.15 70.6445 162.54 68.0286 159.331 68.0286H146.48Z" fill="#FFC333"/>
<path d="M263.777 221.201H183.536C180.767 221.201 178.515 218.943 178.515 216.168V183.361C178.515 180.586 180.767 178.329 183.536 178.329H263.777C266.546 178.329 268.799 180.586 268.799 183.361V216.168C268.799 218.943 266.546 221.201 263.777 221.201Z" fill="white"/>
<path d="M268.651 183.361V216.168C268.651 218.868 266.471 221.053 263.777 221.053H224.397C218.688 214.261 215.248 205.495 215.248 195.921C215.248 189.65 216.723 183.728 219.346 178.477H263.777C266.471 178.477 268.651 180.662 268.651 183.361L268.651 183.361Z" fill="#E6E6E6"/>
<path d="M263.777 221.78H183.537C180.449 221.78 177.937 219.263 177.937 216.169V183.361C177.937 180.267 180.449 177.749 183.537 177.749H263.777C266.865 177.749 269.377 180.267 269.377 183.361V216.169C269.377 219.263 266.865 221.78 263.777 221.78ZM183.537 178.908C181.086 178.908 179.093 180.905 179.093 183.361V216.169C179.093 218.624 181.086 220.621 183.537 220.621H263.777C266.227 220.621 268.221 218.624 268.221 216.169V183.361C268.221 180.905 266.227 178.908 263.777 178.908H183.537Z" fill="#3F3D56"/>
<path d="M188.399 209.965C186.365 209.965 184.711 211.623 184.711 213.661C184.711 215.699 186.365 217.357 188.399 217.357H196.66C198.694 217.357 200.348 215.699 200.348 213.661C200.348 211.623 198.694 209.965 196.66 209.965H188.399Z" fill="#FFC333"/>
<path d="M213.543 181.581C210.334 181.581 207.724 184.197 207.724 187.412C207.724 190.628 210.334 193.243 213.543 193.243H226.394C229.603 193.243 232.213 190.628 232.213 187.412C232.213 184.197 229.603 181.581 226.394 181.581H213.543Z" fill="#FFC333"/>
<path d="M269.22 191.774C261.85 195.62 253.897 194.926 251.455 190.226C249.014 185.526 253.009 178.6 260.382 174.754C263.306 173.177 266.564 172.325 269.884 172.269L301.314 156.371L307.556 168.842L276.703 185.397C274.753 188.091 272.187 190.278 269.22 191.774Z" fill="#A0616A"/>
<path d="M304.954 56.2582C304.954 56.2582 337.33 54.5202 344.267 71.9007C351.205 89.2811 356.986 146.057 356.986 146.057L286.454 184.511L274.313 165.755L321.72 128.677L304.954 56.2582Z" fill="#3F3D56"/>
</g>
<defs>
<clipPath id="clip0_423_198">
<rect width="423" height="319" fill="white"/>
</clipPath>
</defs>
</svg>
