<svg width="1437" height="1342" viewBox="0 0 1437 1342" fill="none" xmlns="http://www.w3.org/2000/svg">
<g clip-path="url(#clip0_510_305)">
<path d="M1437 0H0V1342H1437V0Z" fill="white"/>
<path d="M1437 1088.59C1363.07 1100.44 1289.31 1112.07 1235.82 1051.68C1182.49 991.067 1149.44 858.433 1119.26 770.979C1089.09 683.302 1061.46 640.805 995.522 618.438C929.579 596.072 825.317 593.611 771.829 537.918C718.5 482.225 716.105 372.852 706.046 274.439C695.827 175.802 677.785 87.901 659.902 0H1437V1088.59Z" fill="#FFE09E"/>
<path d="M1437 544.405C1400.12 550.22 1363.07 556.035 1336.41 525.84C1309.75 495.645 1293.3 429.216 1278.13 385.378C1262.96 341.763 1249.23 320.514 1216.34 309.107C1183.29 297.924 1131.08 296.806 1104.41 269.071C1077.75 241.113 1076.63 186.538 1071.52 137.108C1066.41 87.901 1057.47 44.0623 1048.37 0H1437V544.405Z" fill="#FFC333"/>
<path d="M0 253.414C61.791 296.135 123.742 339.079 186.331 367.708C249.08 396.114 312.468 410.205 363.242 460.753C414.016 511.078 452.176 597.861 471.975 680.841C491.773 764.045 493.21 843.671 546.22 900.258C599.229 956.846 703.651 990.396 750.753 1060.18C797.695 1129.96 787.476 1235.98 777.098 1342H0V253.414Z" fill="#FFE09E"/>
<path d="M0 797.595C30.9753 819.067 61.791 840.539 93.2453 854.854C124.54 869.169 156.154 876.102 181.541 901.377C207.088 926.427 226.088 969.819 235.987 1011.42C245.887 1053.02 246.685 1092.84 273.03 1121.02C299.535 1149.42 351.746 1166.2 375.376 1201.09C398.847 1235.98 393.738 1288.99 388.629 1342H0V797.595Z" fill="#FFC333"/>
</g>
<defs>
<clipPath id="clip0_510_305">
<rect width="1437" height="1342" fill="white"/>
</clipPath>
</defs>
</svg>
